#!OML:ASF H:\GeneralSubjects\Female5\Project 1\Capture day 1\Session 1\Female5.ASF
:FULLY-SPECIFIED
:DEGREES
386
root -7.52836 15.9661 1.4918 174.938 -76.2951 -166.439
lowerback 5.29387 3.22975 1.34112
upperback -10.7849 4.27965 0.763863
thorax -14.8057 1.76049 -0.618733
lowerneck -18.4957 1.3587 2.40397
upperneck 33.1014 1.68264 -3.75333
head 14.5718 0.161599 -1.74949
rclavicle 3.36816e-014 1.9133e-014
rhumerus -49.029 12.9332 -83.0675
rradius 26.1088
rwrist 1.22454
rhand -25.342 -27.2425
rfingers 7.12502
rthumb 1.18124 -57.2189
lclavicle 3.36816e-014 1.9133e-014
lhumerus -48.0667 2.76676 74.5423
lradius 29.3663
lwrist -10.1392
lhand -26.4448 34.7139
lfingers 7.12502
lthumb 0.116168 424.694
rfemur 15.9175 30.2872 44.493
rtibia -9.22211
rfoot -46.2641 -33.2148
rtoes 22.6514
lfemur -25.2706 -34.499 -5.59027
ltibia 4.79383
lfoot -36.1574 -4.54269
ltoes -3.49413
387
root -7.55361 15.9672 1.49228 175.342 -76.2397 -166.771
lowerback 5.21117 3.25345 1.43478
upperback -10.9612 4.30122 0.687784
thorax -14.9536 1.74486 -0.756894
lowerneck -18.2808 1.4107 2.39764
upperneck 33.3879 1.79095 -3.88896
head 14.6608 0.175282 -1.79503
rclavicle 2.90536e-014 1.93318e-014
rhumerus -49.0663 13.8443 -83.9405
rradius 26.6622
rwrist 0.35129
rhand -25.1289 -27.5777
rfingers 7.12502
rthumb 1.38704 -57.5529
lclavicle 2.90536e-014 1.93318e-014
lhumerus -47.9614 2.76723 74.2874
lradius 28.9755
lwrist -10.3867
lhand -26.1346 34.7607
lfingers 7.12502
lthumb 0.415776 424.74
rfemur 15.9644 30.6921 44.5787
rtibia -9.00219
rfoot -46.5635 -33.64
rtoes 21.9228
lfemur -25.1021 -35.1714 -5.49577
ltibia 4.43003
lfoot -36.7022 -4.69919
ltoes -3.04571
388
root -7.58005 15.9714 1.49219 176.432 -76.2044 -167.862
lowerback 5.06291 3.28608 1.30767
upperback -11.0427 4.30784 0.593827
thorax -14.9592 1.75214 -0.784704
lowerneck -18.2242 1.44657 2.5261
upperneck 33.6697 1.91268 -4.25137
head 14.7903 0.180147 -1.95714
rclavicle 4.57826e-014 2.39039e-014
rhumerus -49.0464 14.7669 -84.7224
rradius 27.5167
rwrist -0.573467
rhand -24.789 -27.8159
rfingers 7.12502
rthumb 1.71534 -57.7887
lclavicle 4.57826e-014 2.39039e-014
lhumerus -47.6977 2.87231 74.1291
lradius 28.818
lwrist -10.5863
lhand -25.7272 35.0412
lfingers 7.12502
lthumb 0.809201 425.019
rfemur 15.973 31.0759 44.38
rtibia -8.74287
rfoot -46.5836 -34.582
rtoes 20.315
lfemur -24.794 -36.0968 -5.57666
ltibia 3.97168
lfoot -37.697 -4.70536
ltoes -3.21707
389
root -7.60533 15.9743 1.4879 177.228 -76.2182 -168.762
lowerback 4.89687 3.2837 1.08073
upperback -11.0126 4.27367 0.614621
thorax -14.8358 1.76648 -0.619865
lowerneck -18.238 1.45876 2.476
upperneck 33.8538 2.03792 -4.52735
head 14.8891 0.178943 -2.04893
rclavicle 6.81148e-015 -1.10574e-015
rhumerus -48.9206 15.9221 -85.4282
rradius 28.5254
rwrist -1.66881
rhand -25.1267 -26.9968
rfingers 7.12502
rthumb 1.38919 -56.972
lclavicle 6.81148e-015 -1.10574e-015
lhumerus -47.37 3.06054 74.1763
lradius 28.897
lwrist -10.5358
lhand -25.4909 35.3435
lfingers 7.12502
lthumb 1.03745 425.321
rfemur 16.029 31.3648 44.2027
rtibia -8.51308
rfoot -46.4229 -35.6478
rtoes 18.5175
lfemur -24.3251 -36.8516 -5.76874
ltibia 3.45305
lfoot -38.6981 -4.66994
ltoes -4.23202
390
root -7.62933 15.9734 1.48248 177.35 -76.2737 -168.989
lowerback 4.7744 3.26759 1.04026
upperback -10.9752 4.2495 0.663625
thorax -14.719 1.76626 -0.531051
lowerneck -18.257 1.45796 2.27042
upperneck 33.9358 2.11571 -4.55379
head 14.9338 0.177312 -2.01339
rclavicle 7.78832e-015 -5.08143e-015
rhumerus -48.7357 16.841 -85.9288
rradius 29.7491
rwrist -2.34046
rhand -26.2245 -25.9583
rfingers 7.12502
rthumb 0.328944 -55.9378
lclavicle 7.78832e-015 -5.08143e-015
lhumerus -47.0531 3.17473 74.254
lradius 28.9792
lwrist -10.5762
lhand -25.6719 35.2555
lfingers 7.12502
lthumb 0.862634 425.233
rfemur 16.148 31.5915 44.257
rtibia -8.29552
rfoot -46.5669 -36.1875
rtoes 17.7241
lfemur -23.8859 -37.1823 -5.96321
ltibia 3.05668
lfoot -39.1062 -5.04673
ltoes -4.97436
391
root -7.65466 15.9713 1.4789 177.123 -76.3876 -168.809
lowerback 4.68175 3.23553 1.1857
upperback -10.9907 4.21947 0.673498
thorax -14.6678 1.73631 -0.58999
lowerneck -18.3804 1.47414 2.14521
upperneck 34.103 2.17211 -4.52701
head 15.0417 0.1828 -1.97668
rclavicle 1.50176e-014 1.63625e-014
rhumerus -48.4975 17.2814 -86.1327
rradius 31.1052
rwrist -2.41902
rhand -26.8864 -25.5375
rfingers 7.12502
rthumb -0.310351 -55.517
lclavicle 1.50176e-014 1.63625e-014
lhumerus -46.8367 3.03182 74.3883
lradius 29.1886
lwrist -10.3969
lhand -26.0836 34.9197
lfingers 7.12502
lthumb 0.464988 424.899
rfemur 16.1272 31.3 44.2226
rtibia -8.24073
rfoot -46.5714 -35.8645
rtoes 18.0559
lfemur -23.607 -37.3839 -6.06113
ltibia 2.79889
lfoot -39.1629 -5.7766
ltoes -4.93262
392
root -7.67702 15.9698 1.47741 176.587 -76.5097 -168.296
lowerback 4.66326 3.20476 1.40155
upperback -11.0588 4.20138 0.701591
thorax -14.7249 1.70159 -0.675108
lowerneck -18.5264 1.52465 2.21504
upperneck 34.4179 2.24388 -4.60798
head 15.2309 0.199659 -2.02293
rclavicle -1.71452e-014 -2.33572e-015
rhumerus -48.3202 17.7579 -86.3647
rradius 32.2859
rwrist -2.94713
rhand -27.0358 -25.3406
rfingers 7.12502
rthumb -0.454678 -55.3199
lclavicle -1.71452e-014 -2.33572e-015
lhumerus -46.7313 2.68893 74.7547
lradius 29.6502
lwrist -9.54639
lhand -26.8585 34.9206
lfingers 7.12502
lthumb -0.283409 424.9
rfemur 16.1537 31.2462 44.348
rtibia -8.22974
rfoot -46.796 -35.571
rtoes 18.7053
lfemur -23.453 -37.5759 -6.01041
ltibia 2.63027
lfoot -39.2026 -6.13491
ltoes -4.721
393
root -7.6918 15.9692 1.47203 176.348 -76.4709 -168.129
lowerback 4.65486 3.25912 1.47394
upperback -11.0652 4.28536 0.716299
thorax -14.7219 1.73398 -0.712617
lowerneck -18.4863 1.54618 2.47996
upperneck 34.5337 2.23734 -4.77827
head 15.283 0.203737 -2.14786
rclavicle 2.59166e-014 1.50331e-014
rhumerus -48.0188 18.2772 -86.6183
rradius 33.2482
rwrist -4.02366
rhand -27.1989 -25.2233
rfingers 7.12502
rthumb -0.612178 -55.2022
lclavicle 2.59166e-014 1.50331e-014
lhumerus -46.5861 2.27226 75.2434
lradius 30.3465
lwrist -8.45412
lhand -27.8661 35.1595
lfingers 7.12502
lthumb -1.25661 425.136
rfemur 16.1996 30.8917 44.3774
rtibia -8.08362
rfoot -46.4069 -35.2517
rtoes 18.6287
lfemur -23.1816 -37.6551 -6.06906
ltibia 2.50683
lfoot -39.333 -5.88586
ltoes -4.76321
394
root -7.70366 15.9691 1.46485 176.425 -76.427 -168.288
lowerback 4.6189 3.34176 1.49614
upperback -11.0525 4.39569 0.672609
thorax -14.6758 1.782 -0.78932
lowerneck -18.5924 1.42309 1.87446
upperneck 34.6443 2.09701 -4.30272
head 15.3375 0.12963 -1.86843
rclavicle -3.21441e-014 -9.72802e-015
rhumerus -47.6059 18.4709 -86.6915
rradius 34.2591
rwrist -4.6786
rhand -27.2187 -26.0256
rfingers 7.12502
rthumb -0.631301 -56.0044
lclavicle -3.21441e-014 -9.72802e-015
lhumerus -46.3046 1.85182 75.6383
lradius 31.0641
lwrist -7.49007
lhand -28.2639 35.1611
lfingers 7.12502
lthumb -1.6408 425.135
rfemur 16.3456 30.8378 44.4817
rtibia -7.88148
rfoot -46.4151 -35.1184
rtoes 18.6321
lfemur -22.9088 -37.5004 -6.30026
ltibia 2.46906
lfoot -39.2636 -5.09487
ltoes -5.10741
395
root -7.71915 15.9683 1.46413 176.285 -76.648 -168.196
lowerback 4.61612 3.33584 1.68164
upperback -11.1153 4.39932 0.607155
thorax -14.7297 1.75465 -0.965643
lowerneck -18.2947 1.39079 2.11535
upperneck 34.5781 1.98049 -4.37143
head 15.2344 0.104288 -1.95806
rclavicle 3.26442e-015 1.29552e-014
rhumerus -47.2888 18.4508 -86.6664
rradius 35.2484
rwrist -4.95714
rhand -27.6166 -26.2474
rfingers 7.12502
rthumb -1.01561 -56.2247
lclavicle 3.26442e-015 1.29552e-014
lhumerus -45.9922 1.49176 75.9518
lradius 31.5941
lwrist -6.89803
lhand -28.3517 34.7106
lfingers 7.12502
lthumb -1.72561 424.683
rfemur 16.535 31.0093 44.6636
rtibia -7.81943
rfoot -46.9725 -35.2149
rtoes 18.9317
lfemur -22.8719 -37.3762 -6.50752
ltibia 2.5674
lfoot -38.9192 -4.45926
ltoes -5.32657
